<?xml version="1.0" standalone="no"?>
<!DOCTYPE svg PUBLIC "-//W3C//DTD SVG 20010904//EN"
 "http://www.w3.org/TR/2001/REC-SVG-20010904/DTD/svg10.dtd">
<svg version="1.0" xmlns="http://www.w3.org/2000/svg"
 width="300.000000pt" height="241.000000pt" viewBox="0 0 300.000000 241.000000"
 preserveAspectRatio="xMidYMid meet">
<metadata>
Created by potrace 1.10, written by Peter Selinger 2001-2011
</metadata>
<g transform="translate(0.000000,241.000000) scale(0.050000,-0.050000)"
fill="#1fbbf5" stroke="none">
<path d="M2685 4251 c-209 -98 -308 -206 -375 -411 -63 -193 -68 -1408 -6
-1395 35 8 40 -38 7 -71 -38 -38 -39 -54 -5 -54 14 0 28 -27 30 -60 3 -38 -5
-60 -21 -60 -32 0 -80 75 -64 101 6 10 3 19 -7 19 -11 0 -24 18 -30 40 -6 25
-2 35 11 27 66 -41 -17 203 -210 613 -43 94 -115 251 -159 350 -259 588 -608
862 -1077 846 -142 -5 -170 -12 -175 -41 -6 -31 10 -35 131 -35 248 0 484
-162 679 -466 112 -175 115 -193 77 -504 -18 -143 -42 -357 -55 -475 l-23
-215 -337 0 -336 0 0 547 c0 658 26 732 257 733 43 0 64 8 58 25 -12 35 -858
36 -870 0 -6 -17 14 -25 58 -25 93 0 194 -67 230 -154 56 -134 28 -2511 -32
-2696 -52 -161 -128 -274 -230 -343 -130 -89 -81 -114 91 -46 375 148 442 339
434 1240 l-6 599 335 0 c203 0 335 -8 335 -19 0 -11 -13 -112 -29 -225 -29
-212 -60 -473 -82 -688 -21 -206 -120 -308 -298 -308 -39 0 -71 -9 -71 -19 0
-18 698 -40 755 -24 50 15 23 38 -57 49 -153 20 -156 40 -87 774 16 171 31
344 34 385 3 42 12 76 20 75 8 0 118 0 244 0 219 0 229 -2 242 -45 8 -25 53
-127 101 -228 l88 -182 0 -305 c0 -381 -51 -480 -247 -480 -28 0 -56 -9 -63
-20 -15 -24 -41 -22 365 -20 276 1 327 -3 337 -29 16 -40 48 -40 48 -1 0 20
20 30 61 30 36 0 56 8 49 20 -7 11 -30 20 -53 20 -32 0 -37 9 -26 45 20 64
104 265 170 405 95 201 600 1349 664 1510 78 198 88 204 104 67 72 -617 228
-1716 264 -1857 89 -351 336 -674 612 -800 214 -98 619 -148 673 -82 30 35
-10 52 -126 52 -503 0 -820 420 -952 1260 -24 149 -68 432 -100 630 -57 359
-135 862 -192 1240 -45 298 -45 298 -78 270 -16 -13 -34 -43 -41 -67 -17 -56
-186 -448 -269 -623 -21 -44 -156 -345 -300 -670 -334 -751 -370 -833 -410
-930 l-34 -80 -31 70 c-17 39 -62 137 -99 219 l-67 148 1 904 c1 1150 20 1238
305 1419 121 76 14 92 -140 21z m-1005 -1081 c0 -16 32 -98 70 -181 39 -84 70
-156 70 -162 0 -5 36 -81 80 -169 104 -209 111 -198 -121 -198 l-201 0 11 85
c11 80 50 588 48 613 -4 28 4 42 23 42 11 0 20 -13 20 -30z m837 -1595 c13
-25 19 -66 14 -92 -8 -38 -4 -42 19 -23 22 19 27 15 25 -18 -2 -23 -11 -42
-19 -42 -25 0 -19 -69 14 -147 17 -39 30 -83 29 -97 -1 -38 -99 81 -99 120 -1
29 -3 30 -20 4 -11 -16 -20 -21 -20 -9 0 12 10 31 22 43 12 12 17 38 12 59 -7
30 -10 28 -12 -9 -4 -77 -42 -27 -42 55 0 173 33 240 77 156z m121 -130 c-8
-46 5 -63 37 -50 33 12 33 11 0 -22 -19 -20 -44 -30 -55 -23 -11 7 -20 3 -20
-9 0 -11 -10 -21 -22 -21 -13 0 -17 14 -8 35 8 19 17 49 20 65 4 17 8 32 8 35
4 13 42 3 40 -10z"/>
<path d="M5010 1871 c-158 -57 -325 -362 -230 -421 11 -7 20 10 20 40 0 446
723 457 866 13 206 -642 -510 -1138 -974 -674 -201 201 -208 719 -12 916 116
115 56 143 -64 29 -336 -317 -267 -894 131 -1098 510 -260 1083 48 1083 584
-1 463 -402 763 -820 611z"/>
<path d="M811 936 c-47 -68 -44 -358 6 -403 61 -56 3112 -50 3142 6 34 62 26
345 -10 397 l-31 44 -1538 0 -1538 0 -31 -44z m269 -136 c0 -27 13 -40 40 -40
27 0 40 13 40 40 0 22 13 40 30 40 23 0 30 -26 30 -110 0 -84 -7 -110 -30
-110 -19 0 -30 19 -30 50 0 37 -11 50 -40 50 -29 0 -40 -13 -40 -50 0 -31 -11
-50 -30 -50 -23 0 -30 26 -30 110 0 84 7 110 30 110 17 0 30 -18 30 -40z m541
-52 c47 -110 48 -128 9 -128 -16 0 -30 9 -30 20 0 27 -67 25 -94 -2 -50 -50
-60 -4 -23 97 49 130 86 134 138 13z m339 12 c0 -55 9 -80 28 -80 32 0 52 43
52 112 0 29 12 48 30 48 42 0 40 -147 -1 -189 -38 -37 -111 -41 -145 -7 -36
36 -31 196 6 196 22 0 30 -22 30 -80z m518 62 c43 -28 7 -66 -39 -41 -22 11
-39 13 -39 3 0 -10 23 -28 50 -40 104 -48 35 -145 -81 -115 -78 19 -64 77 16
63 l65 -10 -55 23 c-52 22 -75 88 -42 122 19 18 92 16 125 -5z m412 -67 c19
-47 39 -96 44 -110 6 -14 -4 -25 -22 -25 -18 0 -32 9 -32 20 0 11 -22 20 -50
20 -27 0 -50 -9 -50 -20 0 -11 -13 -20 -30 -20 -40 0 -38 23 14 129 55 113 82
114 126 6z m332 13 l13 -58 15 65 c10 43 27 65 50 65 23 0 40 -22 50 -65 l14
-65 19 65 c10 38 31 65 49 65 18 0 27 -11 21 -25 -6 -14 -22 -63 -36 -110 -27
-90 -97 -124 -97 -46 0 56 -36 70 -44 16 -12 -87 -79 -55 -106 50 -13 52 -19
99 -13 105 23 23 54 -6 65 -62z m518 -38 c0 -84 -7 -110 -30 -110 -23 0 -30
26 -30 110 0 84 7 110 30 110 23 0 30 -26 30 -110z"/>
</g>
</svg>
