 <svg  version="1.0" xmlns="http://www.w3.org/2000/svg"  width="300.000000pt" height="313.000000pt" viewBox="0 0 300.000000 313.000000"  preserveAspectRatio="xMidYMid meet">  <g transform="translate(0.000000,313.000000) scale(0.050000,-0.050000)" fill="#f4100f" stroke="none"> <path d="M2866 6048 c-5 -14 -5 -33 0 -42 73 -120 -142 -927 -341 -1283 l-70 -126 -343 339 c-392 388 -437 415 -692 413 -341 -4 -589 -260 -589 -609 0 -236 36 -294 422 -682 l331 -334 -132 -74 c-324 -181 -707 -297 -1107 -334 l-245 -23 0 -97 0 -96 105 0 c155 0 480 -53 685 -111 167 -48 690 -281 690 -308 0 -6 -148 -159 -329 -340 -383 -383 -419 -441 -420 -681 -2 -350 257 -608 609 -608 237 0 294 35 682 421 l334 331 71 -128 c196 -350 327 -809 337 -1181 l5 -155 113 0 112 0 4 145 c9 380 137 838 333 1188 l73 131 333 -331 c387 -384 444 -419 683 -420 359 -2 609 247 610 607 0 253 -32 305 -421 695 -220 220 -317 330 -301 342 212 171 843 369 1263 397 l189 12 0 94 0 94 -246 22 c-398 37 -781 153 -1106 335 l-133 74 331 332 c394 397 423 444 424 683 0 358 -241 607 -590 609 -255 2 -300 -25 -693 -414 l-342 -339 -64 117 c-219 402 -325 783 -348 1247 l-6 109 -105 3 c-70 1 -109 -7 -116 -24z m134 -696 c0 -105 194 -581 313 -767 84 -132 99 -95 -130 -324 l-196 -196 -204 200 c-111 111 -203 204 -203 207 0 3 37 64 82 136 93 149 246 512 281 667 21 96 57 144 57 77z m1760 -240 c122 -81 187 -193 196 -341 12 -189 -37 -265 -411 -638 l-319 -316 -118 99 c-121 102 -330 314 -446 452 l-66 78 317 317 c437 438 607 508 847 349z m-3125 -26 c77 -36 671 -594 682 -640 3 -16 -78 -114 -180 -218 -103 -104 -190 -198 -194 -209 -3 -10 -19 -19 -34 -19 -15 0 -51 -31 -80 -70 -70 -91 -109 -88 -195 15 -39 47 -166 182 -283 301 -277 281 -291 305 -291 496 0 316 280 484 575 344z m916 -1445 l-310 -310 -188 180 c-218 208 -208 191 -138 233 91 54 355 308 467 448 l104 131 187 -186 187 -187 -309 -309z m1112 454 c97 -112 338 -331 407 -370 26 -14 -302 -385 -342 -385 -1 0 -139 136 -307 302 l-305 302 177 184 177 184 47 -51 c25 -28 91 -103 146 -166z m-363 -585 l310 -310 -310 -310 -310 -309 -317 312 -318 312 307 307 c169 170 312 308 318 308 6 0 150 -140 320 -310z m-1332 -192 c121 -107 119 -115 -73 -316 -192 -201 -200 -205 -282 -125 -58 55 -164 111 -478 250 -140 62 -143 83 -20 136 248 106 394 182 473 246 47 39 92 64 101 56 8 -8 13 -6 10 5 -11 58 9 44 89 -58 48 -62 129 -149 180 -194z m2353 241 c161 -114 728 -339 855 -339 66 0 -10 -35 -146 -69 -177 -43 -482 -170 -650 -271 l-130 -78 -200 199 -200 199 200 200 c110 110 203 200 207 200 4 0 33 -18 64 -41z m-1650 -1286 l-181 -185 -59 71 c-127 151 -346 369 -454 453 l-114 88 184 186 183 187 311 -308 312 -307 -182 -185z m1355 378 c-100 -77 -447 -425 -502 -501 l-42 -60 -186 185 -186 185 310 310 309 310 186 -185 186 -185 -75 -59z m539 -406 c204 -205 345 -365 364 -410 119 -285 -91 -604 -399 -605 -172 0 -223 35 -598 406 l-329 326 97 114 c53 63 122 143 153 179 60 68 349 324 368 325 6 0 161 -151 344 -335z m-2529 31 c156 -155 284 -293 284 -305 0 -41 -616 -611 -704 -651 -362 -164 -718 228 -511 563 43 69 613 675 636 676 7 1 140 -127 295 -283z m1151 -133 l197 -198 -92 -157 c-100 -171 -238 -504 -275 -667 -31 -132 -41 -128 -83 34 -48 186 -157 445 -266 632 l-91 157 197 197 c108 108 201 197 206 198 6 0 99 -88 207 -196z"/> </g> </svg> 