<?xml version="1.0" standalone="no"?>
<!DOCTYPE svg PUBLIC "-//W3C//DTD SVG 20010904//EN"
 "http://www.w3.org/TR/2001/REC-SVG-20010904/DTD/svg10.dtd">
<svg version="1.0" xmlns="http://www.w3.org/2000/svg"
 width="450.000000pt" height="450.000000pt" viewBox="0 0 450.000000 450.000000"
 preserveAspectRatio="xMidYMid meet">
<metadata>
Created by potrace 1.10, written by Peter Selinger 2001-2011
</metadata>
<g transform="translate(0.000000,450.000000) scale(0.050000,-0.050000)"
fill="#21bbee" stroke="none">
<path d="M4759 6446 c-308 -159 -364 -307 -375 -996 -9 -572 3 -723 57 -740
29 -9 34 -22 21 -56 -9 -24 -14 -62 -10 -84 4 -22 2 -56 -4 -76 -17 -53 -66
16 -53 74 7 34 5 37 -13 12 -18 -25 -21 -22 -22 16 0 26 -9 41 -20 34 -11 -7
-14 1 -8 19 7 17 20 31 29 31 28 0 -45 192 -201 530 -35 77 -105 230 -155 340
-95 207 -108 232 -218 402 -200 311 -633 520 -952 460 -134 -25 -91 -66 80
-77 276 -17 548 -233 707 -560 l45 -92 -33 -267 c-18 -146 -43 -363 -56 -481
l-23 -215 -328 0 -327 0 0 521 c0 647 11 686 210 715 214 32 78 54 -330 54
-266 0 -420 -7 -420 -20 -1 -11 32 -23 72 -26 232 -21 228 3 228 -1309 0
-1516 -19 -1634 -300 -1818 -114 -75 -13 -86 139 -16 348 160 401 318 401
1195 l0 594 315 -5 315 -5 -4 -85 c-9 -221 -107 -939 -135 -993 -39 -75 -94
-107 -209 -121 -49 -6 -92 -21 -96 -33 -8 -25 721 -27 746 -2 8 8 6 15 -4 15
-238 20 -232 -37 -122 1175 4 46 9 47 230 48 259 1 237 15 324 -194 37 -88 79
-178 94 -199 19 -29 26 -126 26 -341 0 -385 -42 -467 -246 -478 -22 -1 -44
-13 -49 -26 -6 -18 74 -20 326 -12 297 11 336 9 352 -21 13 -23 28 -27 53 -14
19 10 52 25 74 33 38 14 38 15 -5 23 -79 14 -92 -20 382 1042 139 312 253 570
253 574 0 3 26 63 57 133 32 69 79 179 105 244 l48 119 14 -79 c8 -43 42 -289
76 -548 181 -1371 197 -1440 401 -1741 197 -292 460 -426 837 -428 261 -1 291
33 54 62 -278 34 -475 156 -635 391 -148 218 -195 390 -308 1116 -28 182 -68
438 -89 570 -69 435 -101 636 -147 939 -50 327 -69 361 -123 217 -30 -81 -221
-512 -450 -1016 -30 -66 -88 -196 -129 -290 -42 -93 -128 -287 -192 -430 -64
-143 -134 -305 -155 -359 -36 -93 -84 -144 -84 -90 0 13 -40 110 -90 214 l-90
190 0 795 c0 1077 37 1266 274 1417 173 109 66 132 -135 29z m-803 -1366 c71
-159 137 -299 147 -309 39 -43 8 -51 -184 -51 l-202 0 12 105 c15 128 50 554
48 572 -7 53 9 66 28 23 12 -27 80 -180 151 -340z m684 -1232 c0 -14 14 -39
30 -55 27 -27 27 -33 -5 -51 -35 -21 -14 -31 48 -24 38 5 49 -59 16 -92 -28
-28 -32 -27 -43 11 -6 24 -19 43 -28 43 -25 0 -23 -17 20 -135 21 -58 31 -105
21 -105 -29 0 -83 95 -86 151 -3 42 -11 49 -48 40 -68 -18 -55 68 15 94 24 10
23 12 -5 13 -20 1 -34 17 -33 37 1 21 5 25 11 10 20 -48 46 -26 28 23 -10 26
-15 52 -10 57 19 19 69 7 69 -17z"/>
<path d="M7100 4153 c-113 -37 -158 -70 -209 -151 -55 -87 -87 -250 -53 -271
14 -8 22 7 22 42 0 321 499 461 733 204 190 -209 191 -625 2 -830 -263 -286
-735 -238 -923 94 -120 210 -83 628 69 780 131 131 69 146 -71 17 -593 -546
168 -1450 881 -1047 637 360 237 1389 -451 1162z"/>
<path d="M2980 3240 c-52 -52 -58 -325 -9 -396 l31 -44 1496 0 c1738 0 1562
-27 1562 237 0 270 171 243 -1560 243 -1453 0 -1481 -1 -1520 -40z m240 -140
c0 -27 13 -40 40 -40 27 0 40 13 40 40 0 27 13 40 42 40 30 0 39 -9 30 -32 -7
-17 -12 -67 -12 -111 0 -86 -44 -102 -56 -20 -4 27 -21 43 -47 43 -29 0 -38
-11 -33 -43 3 -24 -5 -47 -19 -52 -18 -6 -25 23 -25 103 0 62 9 112 20 112 11
0 20 -18 20 -40z m544 -66 c46 -106 40 -130 -22 -91 -34 21 -50 22 -82 2 -72
-45 -80 -15 -27 116 41 104 78 96 131 -27z m320 31 c9 -113 76 -119 76 -6 0
59 8 81 30 81 32 0 43 -129 14 -173 -59 -95 -184 -31 -184 94 0 107 55 110 64
4z m515 47 c31 -38 -10 -64 -50 -31 -16 13 -29 15 -29 5 0 -11 23 -30 50 -42
63 -29 64 -78 3 -106 -35 -16 -60 -16 -90 1 -66 35 -53 66 22 52 l65 -12 -55
31 c-52 29 -72 86 -42 117 24 23 101 14 126 -15z m407 -78 c44 -106 38 -129
-24 -91 -34 22 -50 22 -83 1 -67 -42 -78 -10 -33 97 52 124 87 122 140 -7z
m316 34 l13 -58 15 66 c18 76 76 82 86 8 8 -53 44 -39 44 17 0 23 14 39 32 39
24 0 29 -12 20 -45 -7 -25 -18 -69 -25 -99 -22 -103 -103 -66 -108 50 -1 13
-12 -7 -25 -46 -34 -98 -75 -88 -104 25 -13 52 -19 99 -13 105 23 23 54 -6 65
-62z m498 -40 c0 -145 -46 -138 -55 8 -5 83 0 104 24 104 24 0 31 -25 31 -112z"/>
</g>
</svg>
